<?xml version="1.0" encoding="UTF-8"?>
<!-- Generated by Pixelmator Pro 3.6.18 -->
<svg width="1298" height="468" viewBox="0 0 1298 468" xmlns="http://www.w3.org/2000/svg">
    <g id="Group">
        <path id="Path" fill="#ffffff" stroke="none" d="M 236.667725 272.117676 L 236.667725 272.117676 C 214.836914 258.97583 207.727783 230.361816 220.869629 208.531006 L 331.80249 24.253418 C 344.944336 2.422607 373.55835 -4.686523 395.38916 8.455322 L 395.389404 8.455566 C 417.219971 21.597412 424.329346 50.211426 411.1875 72.042236 L 300.254395 256.31958 C 287.112549 278.150391 258.498779 285.259521 236.667725 272.117676 Z"/>
        <path id="path1" fill="#ffffff" stroke="none" d="M 386.726807 462.025635 L 386.726807 462.025879 C 364.430176 474.36084 336.094971 466.210449 323.76001 443.913818 L 219.637451 255.70459 C 207.30249 233.407959 215.452637 205.072754 237.749268 192.737793 L 237.749268 192.737793 C 260.046143 180.402588 288.380859 188.552979 300.716064 210.849609 L 404.838623 399.059082 C 417.173828 421.355469 409.023438 449.690674 386.726807 462.025635 Z"/>
        <path id="path2" fill="#ffffff" stroke="none" d="M 0.143799 233.325439 L 0.143799 233.325439 C 0.143799 258.806641 20.992188 279.655029 46.473511 279.655029 L 261.564697 279.654785 C 287.045898 279.654785 307.894287 258.806641 307.894287 233.325439 L 307.894287 233.325195 C 307.894287 207.843994 287.045898 186.99585 261.564697 186.99585 L 46.473389 186.99585 C 20.992188 186.99585 0.143799 207.843994 0.143799 233.325439 Z"/>
        <g id="g1">
            <path id="path3" fill="#ffffff" stroke="none" d="M 538.311035 170.148682 C 548.762695 176.185303 556.920898 184.670898 562.784668 195.605713 C 568.648926 206.540527 571.580811 219.044678 571.580811 233.118408 L 571.580811 239.741455 C 571.580811 253.884033 568.648926 266.405518 562.784668 277.305664 C 556.920898 288.206055 548.745605 296.674316 538.259277 302.710938 C 527.772949 308.747314 515.768799 311.765625 502.24707 311.765625 L 469.546387 311.765625 L 455.472656 311.765625 L 455.472656 161.093994 L 487.966309 161.093994 L 502.454102 161.093994 C 515.906738 161.093994 527.859131 164.112305 538.311035 170.148682 Z M 538.56958 232.911377 C 538.56958 218.009766 535.499756 206.695557 529.359619 198.968994 C 523.219727 191.242188 514.251221 187.378662 502.454102 187.378662 L 487.966309 187.378662 L 487.966309 285.584473 L 502.24707 285.584473 C 514.044189 285.584473 523.047119 281.669189 529.256104 273.839111 C 535.465088 266.008789 538.56958 254.642822 538.56958 239.741455 L 538.56958 232.911377 Z"/>
            <path id="path4" fill="#ffffff" stroke="none" d="M 692.65625 199.796631 L 692.65625 311.765625 L 663.370605 311.765625 L 662.542725 300.072021 C 659.02124 304.487305 654.709473 307.88501 649.604248 310.265137 C 644.499268 312.645264 638.669678 313.835449 632.115723 313.835449 C 620.456543 313.835449 611.332764 310.454834 604.744385 303.694092 C 598.155762 296.933105 594.861816 286.446777 594.861816 272.235107 L 594.861816 199.796631 L 626.010254 199.796631 L 626.010254 272.441895 C 626.010254 277.961182 627.372559 282.031494 630.097656 284.653076 C 632.822754 287.274658 636.600098 288.585449 641.429199 288.585449 C 651.018799 288.585449 657.676025 285.239502 661.404297 278.547607 L 661.404297 199.796631 L 692.65625 199.796631 Z"/>
            <path id="path5" fill="#ffffff" stroke="none" d="M 817.244385 265.922607 L 746.46167 265.922607 C 747.634766 272.890381 750.532227 278.426758 755.154541 282.531738 C 759.776611 286.636475 765.709717 288.688965 772.953613 288.688965 C 778.334717 288.688965 783.319092 287.671387 787.906738 285.63623 C 792.494629 283.60083 796.409668 280.54834 799.652344 276.477783 L 814.657227 293.759521 C 810.724854 299.416748 804.981689 304.177002 797.427246 308.040283 C 789.873047 311.903564 781.025146 313.835449 770.883789 313.835449 C 759.431641 313.835449 749.47998 311.420654 741.028809 306.591553 C 732.577881 301.762207 726.092773 295.208252 721.573975 286.929688 C 717.055176 278.650879 714.795898 269.51001 714.795898 259.506592 L 714.795898 255.574219 C 714.795898 244.397949 716.900146 234.429199 721.108398 225.66748 C 725.316895 216.906006 731.387695 210.058838 739.321533 205.126221 C 747.255127 200.193359 756.637695 197.727051 767.468994 197.727051 C 778.02417 197.727051 787.027344 199.969238 794.478027 204.453613 C 801.928955 208.937744 807.585938 215.302002 811.449219 223.546143 C 815.312744 231.790283 817.244385 241.500488 817.244385 252.676758 L 817.244385 265.922607 Z M 786.613281 242.5354 C 786.475342 236.464355 784.80249 231.669678 781.594482 228.151123 C 778.38623 224.632813 773.608887 222.873535 767.261963 222.873535 C 761.328857 222.873535 756.689453 224.839844 753.343506 228.772217 C 749.997559 232.704346 747.807129 238.120117 746.772217 245.019043 L 786.613281 245.019043 L 786.613281 242.5354 Z"/>
            <path id="path6" fill="#ffffff" stroke="none" d="M 925.689209 207.81665 C 931.829102 214.543213 934.898926 225.529541 934.898926 240.776123 L 934.898926 311.765625 L 903.647217 311.765625 L 903.647217 240.672607 C 903.647217 234.049805 902.23291 229.444824 899.404297 226.857666 C 896.575928 224.270508 892.195068 222.977051 886.261963 222.977051 C 882.19165 222.977051 878.656006 223.839355 875.654785 225.564209 C 872.653809 227.288818 870.221924 229.738037 868.359375 232.911377 L 868.359375 311.765625 L 837.107422 311.765625 L 837.107422 199.796631 L 866.393066 199.796631 L 867.427979 212.732178 C 871.360352 207.833984 876.051514 204.108643 881.501709 201.555908 C 886.951904 199.003418 892.988281 197.727051 899.611328 197.727051 C 910.856445 197.727051 919.549072 201.090332 925.689209 207.81665 Z"/>
            <path id="path7" fill="#ffffff" stroke="none" d="M 1058.03833 152.81543 L 1058.03833 311.765625 L 1029.890869 311.765625 L 1028.338623 299.761475 C 1021.025879 309.144043 1011.574219 313.835449 999.984375 313.835449 C 990.946777 313.835449 983.133789 311.403564 976.545166 306.539795 C 969.957031 301.676025 964.955078 294.966797 961.540283 286.412354 C 958.125244 277.857666 956.417969 268.095703 956.417969 257.126465 L 956.417969 254.953369 C 956.417969 243.570313 958.125244 233.566895 961.540283 224.943115 C 964.955078 216.31958 969.957031 209.627686 976.545166 204.867432 C 983.133789 200.107178 991.015625 197.727051 1000.191162 197.727051 C 1010.81543 197.727051 1019.680664 201.762939 1026.786621 209.834717 L 1026.786621 152.81543 L 1058.03833 152.81543 Z M 1026.786621 277.40918 L 1026.786621 234.15332 C 1023.198975 226.702393 1016.990234 222.977051 1008.159424 222.977051 C 1001.053711 222.977051 995.862061 225.874512 992.585205 231.669678 C 989.308105 237.4646 987.669922 245.22583 987.669922 254.953369 L 987.669922 257.126465 C 987.669922 266.716064 989.273926 274.356445 992.481689 280.048096 C 995.689697 285.739746 1000.84668 288.585449 1007.952393 288.585449 C 1016.714111 288.585449 1022.991943 284.860107 1026.786621 277.40918 Z"/>
            <path id="path8" fill="#ffffff" stroke="none" d="M 1183.253174 265.922607 L 1112.470459 265.922607 C 1113.643311 272.890381 1116.541016 278.426758 1121.16333 282.531738 C 1125.7854 286.636475 1131.718506 288.688965 1138.962402 288.688965 C 1144.343262 288.688965 1149.327881 287.671387 1153.915771 285.63623 C 1158.503418 283.60083 1162.418701 280.54834 1165.660889 276.477783 L 1180.666016 293.759521 C 1176.733643 299.416748 1170.990234 304.177002 1163.436279 308.040283 C 1155.881836 311.903564 1147.033936 313.835449 1136.892822 313.835449 C 1125.44043 313.835449 1115.489014 311.420654 1107.037598 306.591553 C 1098.58667 301.762207 1092.101563 295.208252 1087.583008 286.929688 C 1083.063965 278.650879 1080.804688 269.51001 1080.804688 259.506592 L 1080.804688 255.574219 C 1080.804688 244.397949 1082.908936 234.429199 1087.117188 225.66748 C 1091.325439 216.906006 1097.396729 210.058838 1105.330078 205.126221 C 1113.263916 200.193359 1122.646484 197.727051 1133.477783 197.727051 C 1144.033203 197.727051 1153.036133 199.969238 1160.486816 204.453613 C 1167.937744 208.937744 1173.594727 215.302002 1177.458252 223.546143 C 1181.321533 231.790283 1183.253174 241.500488 1183.253174 252.676758 L 1183.253174 265.922607 Z M 1152.62207 242.5354 C 1152.484131 236.464355 1150.811279 231.669678 1147.603027 228.151123 C 1144.395264 224.632813 1139.617676 222.873535 1133.270752 222.873535 C 1127.337646 222.873535 1122.698242 224.839844 1119.352295 228.772217 C 1116.006348 232.704346 1113.815918 238.120117 1112.781006 245.019043 L 1152.62207 245.019043 L 1152.62207 242.5354 Z"/>
        </g>
        <path id="path9" fill="#ffffff" stroke="none" d="M 1296.607666 279.257813 C 1296.607666 298.167236 1281.278564 313.496582 1262.369141 313.496582 C 1243.459473 313.496582 1228.130127 298.167236 1228.130127 279.257813 C 1228.130127 260.348145 1243.459473 245.019043 1262.369141 245.019043 C 1281.278564 245.019043 1296.607666 260.348145 1296.607666 279.257813 Z"/>
        <path id="path10" fill="#ffffff" stroke="none" d="M 313.607666 233.325439 L 313.607666 233.325195 C 313.607666 207.843994 292.646484 186.995605 267.027588 186.995605 L 233.862061 186.995605 L 220.828125 208.530762 C 219.498535 210.727539 218.430664 213.006104 217.507813 215.317139 C 217.299316 215.811035 217.086426 216.301025 216.895508 216.801514 C 216.834961 216.969238 216.781494 217.138184 216.723145 217.306396 C 212.221436 229.51123 212.803955 243.505371 219.589355 255.704346 L 232.910889 279.654785 L 267.027588 279.654785 C 292.646484 279.654785 313.607666 258.806641 313.607666 233.325439 Z"/>
    </g>
</svg>
